<svg width="48" height="59" viewBox="0 0 48 59" fill="none" xmlns="http://www.w3.org/2000/svg">
<g id="Group 461">
<path id="Path 247" d="M-1.31859e-06 30.1659L-1.2708e-06 29.0725C6.4303e-06 27.432 0.464389 25.824 1.34111 24.4286C2.21782 23.0332 3.47223 21.9055 4.96376 21.172L48 0L48 8.56619C48 12.2573 46.955 15.8755 44.9824 19.0153C43.0097 22.1551 40.1871 24.6924 36.8311 26.343L12.9958 38.0673C11.6267 38.7408 10.1053 39.0588 8.57617 38.9911C7.04701 38.9234 5.56083 38.4723 4.25875 37.6806C2.95666 36.889 1.88191 35.783 1.13654 34.4678C0.391177 33.1526 -5.47902e-05 31.6717 -1.31859e-06 30.1659Z" fill="url(#paint0_linear_1345_12113)"/>
<path id="Path 248" d="M-1.31859e-06 28.8341L-1.2708e-06 29.9275C6.4303e-06 31.568 0.464389 33.176 1.34111 34.5714C2.21782 35.9668 3.47223 37.0945 4.96376 37.828L48 59L48 50.4338C48 46.7427 46.955 43.1245 44.9824 39.9847C43.0097 36.8449 40.1871 34.3076 36.8311 32.657L12.9958 20.9327C11.6267 20.2592 10.1053 19.9412 8.57617 20.0089C7.04701 20.0766 5.56083 20.5277 4.25875 21.3194C2.95666 22.111 1.88191 23.217 1.13654 24.5322C0.391177 25.8474 -5.47902e-05 27.3283 -1.31859e-06 28.8341Z" fill="url(#paint1_linear_1345_12113)"/>
</g>
<defs>
<linearGradient id="paint0_linear_1345_12113" x1="-2.1523" y1="26.7242" x2="47.6237" y2="-0.683427" gradientUnits="userSpaceOnUse">
<stop offset="0.377672" stop-color="#1F4888"/>
<stop offset="1" stop-color="#B0F38A"/>
</linearGradient>
<linearGradient id="paint1_linear_1345_12113" x1="-2.1523" y1="32.2758" x2="47.6237" y2="59.6834" gradientUnits="userSpaceOnUse">
<stop stop-color="#1F4888"/>
<stop offset="1" stop-color="#B0F38A"/>
</linearGradient>
</defs>
</svg>
