<svg width="15" height="12" viewBox="0 0 15 12" fill="none" xmlns="http://www.w3.org/2000/svg">
<g id="Group 1">
<path id="Path 110" d="M7.91939 11.5825H7.65962C7.30315 11.5824 6.9526 11.4913 6.64126 11.3176C6.32992 11.144 6.06812 10.8937 5.88071 10.5905C5.69331 10.2873 5.58652 9.94116 5.57048 9.58505C5.55444 9.22894 5.62969 8.87464 5.78907 8.55578L8.56497 3.00399C8.95576 2.22231 9.55651 1.56491 10.2999 1.10544C11.0433 0.645971 11.8999 0.402597 12.7739 0.402588L14.8018 0.402588L9.78905 10.4263C9.61542 10.7736 9.34857 11.0656 9.01836 11.2698C8.68815 11.474 8.30762 11.5823 7.91939 11.5825Z" fill="#1F4888" fill-opacity="0.5"/>
<path id="Path 111" d="M7.5938 11.501H7.85357C8.21004 11.5009 8.56059 11.4098 8.87192 11.2362C9.18326 11.0626 9.44506 10.8123 9.63247 10.509C9.81988 10.2058 9.92667 9.85968 9.94271 9.50357C9.95874 9.14746 9.8835 8.79315 9.72411 8.4743L6.94822 2.92251C6.55742 2.14083 5.95667 1.48343 5.21328 1.02396C4.4699 0.564489 3.61324 0.321115 2.73932 0.321106L0.711385 0.321106L5.72413 10.3448C5.89776 10.6921 6.16462 10.9842 6.49483 11.1883C6.82503 11.3925 7.20556 11.5008 7.5938 11.501Z" fill="#1F4888"/>
</g>
</svg>
